<svg xmlns="http://www.w3.org/2000/svg" viewBox="0 0 900 1125">
  <defs>
    <linearGradient id="bg" x1="0" y1="0" x2="1" y2="1">
      <stop offset="0" stop-color="#0f2e1d"/>
      <stop offset="1" stop-color="#050e09"/>
    </linearGradient>
    <linearGradient id="gold" x1="0" y1="0" x2="1" y2="0">
      <stop offset="0" stop-color="#9c7a22"/>
      <stop offset="1" stop-color="#e9c869"/>
    </linearGradient>
  </defs>
  <rect width="900" height="1125" fill="url(#bg)"/>
  <g stroke="#d4af37" stroke-opacity="0.35" fill="none" stroke-width="1.5">
    <path d="M0 250 H900"/><path d="M0 450 H900"/><path d="M0 650 H900"/><path d="M0 850 H900"/>
    <path d="M180 0 V1125"/><path d="M420 0 V1125"/><path d="M660 0 V1125"/>
  </g>
  <g fill="url(#gold)" opacity="0.9">
    <rect x="210" y="270" width="180" height="150"/>
    <rect x="450" y="270" width="180" height="150"/>
    <rect x="210" y="470" width="180" height="150"/>
    <rect x="450" y="470" width="180" height="150"/>
    <rect x="210" y="670" width="180" height="150"/>
    <rect x="450" y="670" width="180" height="150"/>
  </g>
  <g fill="#0a2116">
    <circle cx="120" cy="960" r="60"/>
    <circle cx="220" cy="1010" r="42"/>
    <circle cx="760" cy="180" r="70"/>
  </g>
  <g stroke="#f6e6b4" stroke-width="2" fill="none" opacity="0.6">
    <circle cx="120" cy="960" r="60"/>
    <circle cx="220" cy="1010" r="42"/>
  </g>
</svg>
